FFmpeg version SVN-r25716, Copyright (c) 2000-2010 the FFmpeg developers  built on Nov 10 2010 12:23:18 with gcc 4.1.2 20080704 (Red Hat 4.1.2-48)  configuration: --enable-libmp3lame --enable-shared --disable-mmx --arch=x86_64  libavutil     50.33. 0 / 50.33. 0  libavcore      0.12. 1 /  0.12. 1  libavcodec    52.94. 4 / 52.94. 4  libavformat   52.84. 0 / 52.84. 0  libavdevice   52. 2. 2 / 52. 2. 2  libavfilter    1.59. 0 /  1.59. 0  libswscale     0.12. 0 /  0.12. 0Seems stream 0 codec frame rate differs from container frame rate: 5000.00 (5000/1) -> 25.00 (25/1)Input #0, mov,mp4,m4a,3gp,3g2,mj2, from '/RAID10/data/converted_video_files/25539.mov':  Metadata:    major_brand     : qt      minor_version   : 537199360    compatible_brands: qt    Duration: 00:00:11.96, start: 0.000000, bitrate: 652 kb/s    Stream #0.0(eng): Video: h264, yuv420p, 784x576, 648 kb/s, 25 fps, 25 tbr, 2500 tbn, 5k tbc[buffer @ 0x454d640] w:784 h:576 pixfmt:yuv420pOutput #0, flv, to '/RAID10/data/converted_video_files/25539.flv':  Metadata:    encoder         : Lavf52.84.0    Stream #0.0(eng): Video: flv, yuv420p, 784x576, q=2-31, 600 kb/s, 1k tbn, 24 tbcStream mapping:  Stream #0.0 -> #0.0Press [q] to stop encodingframe=   50 fps=  0 q=2.0 size=     219kB time=2.08 bitrate= 860.0kbits/s dup=0 drop=2    frame=  102 fps= 99 q=2.4 size=     433kB time=4.25 bitrate= 835.0kbits/s dup=0 drop=4    frame=  161 fps=104 q=2.9 size=     651kB time=6.71 bitrate= 795.2kbits/s dup=0 drop=7    frame=  220 fps=108 q=2.7 size=     851kB time=9.17 bitrate= 760.1kbits/s dup=0 drop=9    frame=  277 fps=109 q=2.9 size=    1046kB time=11.54 bitrate= 742.3kbits/s dup=0 drop=11    frame=  287 fps=108 q=4.4 Lsize=    1073kB time=11.96 bitrate= 734.8kbits/s dup=0 drop=12    video:1068kB audio:0kB global headers:0kB muxing overhead 0.439142%